<?xml version="1.0" encoding="utf-8"?>
<!-- Generator: Adobe Illustrator 23.0.3, SVG Export Plug-In . SVG Version: 6.00 Build 0)  -->
<svg version="1.1" id="Layer_1" xmlns="http://www.w3.org/2000/svg" xmlns:xlink="http://www.w3.org/1999/xlink" x="0px" y="0px"
	 viewBox="0 0 800 700" style="enable-background:new 0 0 800 700;" xml:space="preserve">
<style type="text/css">
	.st0{fill:none;stroke:#000000;stroke-width:3;stroke-miterlimit:10;}
	.st1{fill:#00AEEF;stroke:#000000;stroke-miterlimit:10;}
	.st2{font-family:'MyriadPro-Semibold';}
	.st3{font-size:18.3915px;}
</style>
<g>
	<path class="st0" d="M641.8,76.1"/>
	<path class="st0" d="M463.8,76.1"/>
	<path class="st0" d="M463.8,76.1"/>
	<rect x="379.8" y="233.3" class="st1" width="72.4" height="27.6" id="d2"/>
	<polygon class="st1" points="277.2,230.5 258.5,230.5 249.2,246.7 258.5,262.9 277.2,262.9 286.5,246.7 	"
			 id="0"/>
	<polygon class="st1" points="685.8,230.9 667.1,230.9 657.8,247.1 667.1,263.3 685.8,263.3 695.1,247.1 	"
			 id="1"/>	<line class="st0" x1="703.8" y1="208.6" x2="657.8" y2="208.6"/>
	<line class="st0" x1="657.8" y1="113.6" x2="657.8" y2="208.6"/>
	<line class="st0" x1="246.8" y1="112.6" x2="657.8" y2="113.6"/>
	<line class="st0" x1="246.8" y1="212.6" x2="246.8" y2="112.6"/>
	<line class="st0" x1="96.3" y1="213.6" x2="194.2" y2="213.6"/>
	<line class="st0" x1="96.3" y1="280.6" x2="141.8" y2="280.6"/>
	<line class="st0" x1="141.8" y1="382.6" x2="141.8" y2="280.6"/>
	<line class="st0" x1="657.8" y1="382.6" x2="141.8" y2="382.6"/>
	<line class="st0" x1="657.8" y1="280.6" x2="703.8" y2="280.6"/>
	<line class="st0" x1="657.8" y1="382.6" x2="657.8" y2="280.6"/>
	<line class="st0" x1="162.8" y1="280.6" x2="194.8" y2="280.6"/>
</g>

<line class="st0" x1="231" y1="280.1" x2="305" y2="279.7"/>
<line class="st0" x1="246.8" y1="212.6" x2="304" y2="213.6"/>
<line class="st0" x1="231" y1="280.1" x2="231" y2="382.6"/>
<text transform="matrix(1 0 0 1 375 220)" class="st2 st3">Kantoor D2</text>
<!--<text transform="matrix(1 0 0 1 598.8 232.9)" class="st2 st3">Entry_1</text>-->
<!--<text transform="matrix(1 0 0 1 184.8002 246.6995)" class="st2 st3">Entry_2</text>-->
</svg>
