<?xml version="1.0" encoding="utf-8"?>
<!-- Generator: Adobe Illustrator 23.0.2, SVG Export Plug-In . SVG Version: 6.00 Build 0)  -->
<svg version="1.1" id="Layer_1" xmlns="http://www.w3.org/2000/svg" xmlns:xlink="http://www.w3.org/1999/xlink" x="0px" y="0px"
	 viewBox="0 0 800 700" style="enable-background:new 0 0 800 700;" xml:space="preserve">
<style type="text/css">
	.st0{fill:none;stroke:#000000;stroke-width:3;stroke-miterlimit:10;}
	.st1{fill:#00AEEF;stroke:#000000;stroke-miterlimit:10;}
</style>
<g>
	<path class="st0" d="M641.8,76.1"/>
	<path class="st0" d="M463.8,76.1"/>
	<path class="st0" d="M463.8,76.1"/>
	<rect x="379.8" y="233.3" class="st1" width="72.4" height="27.6"/>
	<polygon class="st1" points="277.2,230.5 258.5,230.5 249.2,246.7 258.5,262.9 277.2,262.9 286.5,246.7 	"/>
	<polygon class="st1" points="685.8,230.9 667.1,230.9 657.8,247.1 667.1,263.3 685.8,263.3 695.1,247.1 	"/>
	<line class="st0" x1="703.8" y1="208.6" x2="657.8" y2="208.6"/>
	<line class="st0" x1="657.8" y1="113.6" x2="657.8" y2="208.6"/>
	<line class="st0" x1="246.8" y1="112.6" x2="657.8" y2="113.6"/>
	<line class="st0" x1="246.8" y1="212.6" x2="246.8" y2="112.6"/>
	<line class="st0" x1="96.3" y1="213.6" x2="194.2" y2="213.6"/>
	<line class="st0" x1="96.3" y1="280.6" x2="141.8" y2="280.6"/>
	<line class="st0" x1="141.8" y1="382.6" x2="141.8" y2="280.6"/>
	<line class="st0" x1="657.8" y1="382.6" x2="141.8" y2="382.6"/>
	<line class="st0" x1="657.8" y1="280.6" x2="703.8" y2="280.6"/>
	<line class="st0" x1="657.8" y1="382.6" x2="657.8" y2="280.6"/>
	<line class="st0" x1="162.8" y1="280.6" x2="194.8" y2="280.6"/>
</g>
<g>
	<path d="M366.8,279.8h2.1v7.8h0.1c0.4-0.6,0.9-1.2,1.3-1.7l4.9-6.1h2.6l-5.9,6.9l6.3,9.3h-2.5l-5.3-7.9l-1.5,1.8v6.2h-2.1V279.8z"
		/>
	<path d="M386.6,296l-0.2-1.5h-0.1c-0.6,0.9-1.9,1.7-3.6,1.7c-2.4,0-3.6-1.7-3.6-3.3c0-2.8,2.5-4.3,7-4.3v-0.2c0-1-0.3-2.7-2.6-2.7
		c-1.1,0-2.2,0.3-3,0.9l-0.5-1.4c1-0.6,2.4-1,3.8-1c3.6,0,4.4,2.4,4.4,4.8v4.3c0,1,0,2,0.2,2.8L386.6,296L386.6,296z M386.3,290.1
		c-2.3,0-4.9,0.4-4.9,2.6c0,1.4,0.9,2,2,2c1.5,0,2.5-1,2.8-1.9c0.1-0.2,0.1-0.5,0.1-0.7V290.1z"/>
	<path d="M391.7,287.5c0-1.2,0-2.2-0.1-3.1h1.9l0.1,1.9l0,0c0.6-1.1,1.9-2.2,3.8-2.2c1.6,0,4.1,1,4.1,4.9v6.9h-2.1v-6.7
		c0-1.9-0.7-3.4-2.7-3.4c-1.4,0-2.5,1-2.8,2.2c-0.1,0.3-0.1,0.6-0.1,1v7h-2.1L391.7,287.5L391.7,287.5z"/>
	<path d="M407.5,281v3.3h3v1.6h-3v6.3c0,1.4,0.4,2.3,1.6,2.3c0.6,0,1-0.1,1.2-0.1l0.1,1.6c-0.4,0.2-1.1,0.3-1.9,0.3
		c-1,0-1.8-0.3-2.3-0.9c-0.6-0.6-0.8-1.7-0.8-3V286h-1.8v-1.6h1.8v-2.8L407.5,281z"/>
	<path d="M423.2,290.1c0,4.3-3,6.2-5.8,6.2c-3.1,0-5.6-2.3-5.6-6c0-3.9,2.5-6.2,5.8-6.2C421,284.1,423.2,286.5,423.2,290.1z
		 M414,290.2c0,2.5,1.5,4.5,3.5,4.5s3.5-1.9,3.5-4.5c0-2-1-4.5-3.5-4.5S414,288,414,290.2z"/>
	<path d="M436.4,290.1c0,4.3-3,6.2-5.8,6.2c-3.1,0-5.6-2.3-5.6-6c0-3.9,2.5-6.2,5.8-6.2C434.2,284.1,436.4,286.5,436.4,290.1z
		 M427.2,290.2c0,2.5,1.5,4.5,3.5,4.5s3.5-1.9,3.5-4.5c0-2-1-4.5-3.5-4.5S427.2,288,427.2,290.2z"/>
	<path d="M439.1,288c0-1.4,0-2.5-0.1-3.6h1.8l0.1,2.3h0.1c0.5-1.6,1.8-2.5,3.2-2.5c0.2,0,0.4,0,0.6,0.1v2c-0.2,0-0.4-0.1-0.7-0.1
		c-1.5,0-2.5,1.1-2.8,2.7c0,0.3-0.1,0.6-0.1,1v6.2h-2.1V288z"/>
	<path d="M452.1,280c1.3-0.2,2.8-0.3,4.4-0.3c3,0,5.1,0.7,6.6,2c1.4,1.3,2.3,3.2,2.3,5.8c0,2.6-0.8,4.8-2.3,6.3s-4,2.3-7.2,2.3
		c-1.5,0-2.7-0.1-3.8-0.2V280z M454.2,294.3c0.5,0.1,1.3,0.1,2.1,0.1c4.5,0,6.9-2.5,6.9-6.9c0-3.8-2.1-6.2-6.6-6.2
		c-1.1,0-1.9,0.1-2.4,0.2V294.3z"/>
	<path d="M467.3,296v-1.3l1.7-1.6c4-3.8,5.8-5.8,5.8-8.2c0-1.6-0.8-3-3.1-3c-1.4,0-2.6,0.7-3.3,1.3l-0.7-1.5
		c1.1-0.9,2.6-1.6,4.4-1.6c3.4,0,4.8,2.3,4.8,4.5c0,2.9-2.1,5.2-5.4,8.4l-1.2,1.2l0,0h7v1.8L467.3,296L467.3,296z"/>
</g>
<line class="st0" x1="231" y1="280.1" x2="305" y2="279.7"/>
<line class="st0" x1="246.8" y1="212.6" x2="304" y2="213.6"/>
<line class="st0" x1="231" y1="280.1" x2="231" y2="382.6"/>
</svg>
