<?xml version="1.0" encoding="utf-8"?>
<!-- Generator: Adobe Illustrator 23.0.3, SVG Export Plug-In . SVG Version: 6.00 Build 0)  -->
<svg version="1.1" id="Layer_1" xmlns="http://www.w3.org/2000/svg" x="0px" y="0px"
     viewBox="0 0 800 700" style="enable-background:new 0 0 800 700;" xml:space="preserve">
<style type="text/css">
	.st0{fill:none;stroke:#000000;stroke-width:3;stroke-miterlimit:10;}
	.st1{fill:#00AEEF;stroke:#000000;stroke-miterlimit:10;}
	.st2{font-family:'MyriadPro-Semibold';}
	.st3{font-size:18.3915px;}
</style>
    <g>
	<path class="st0" d="M641.8,76.1"/>
        <path class="st0" d="M463.8,76.1"/>
        <path class="st0" d="M463.8,76.1"/>
        <rect x="379.8" y="233.3" class="st1" width="72.4" height="27.6" id="d3"/>
        <polygon class="st1" points="228.6,192.4 209.9,192.4 200.6,208.6 209.9,224.8 228.6,224.8 237.9,208.6 	"
                 id="2"/>
        <polygon class="st1" points="685.8,230.9 667.1,230.9 657.8,247.1 667.1,263.3 685.8,263.3 695.1,247.1 	"
                 id="3"/>
        <line class="st0" x1="703.8" y1="208.6" x2="657.8" y2="208.6"/>
        <line class="st0" x1="657.8" y1="113.6" x2="657.8" y2="208.6"/>
        <line class="st0" x1="246.8" y1="112.6" x2="657.8" y2="113.6"/>
        <line class="st0" x1="246.8" y1="212.6" x2="246.8" y2="112.6"/>
        <line class="st0" x1="119.1" y1="217.6" x2="194.2" y2="217.6"/>
        <line class="st0" x1="119.1" y1="284.1" x2="141.8" y2="284.1"/>
        <line class="st0" x1="141.8" y1="382.6" x2="141.8" y2="280.6"/>
        <line class="st0" x1="657.8" y1="382.6" x2="141.8" y2="382.6"/>
        <line class="st0" x1="657.8" y1="280.6" x2="703.8" y2="280.6"/>
        <line class="st0" x1="657.8" y1="382.6" x2="657.8" y2="280.6"/>
        <line class="st0" x1="162.8" y1="280.6" x2="194.8" y2="280.6"/>
        <line class="st0" x1="119.1" y1="217.6" x2="119.1" y2="284.1"/>
</g>

    <text transform="matrix(1 0 0 1 375 220)" class="st2 st3">Kantoor D3</text>
    <text transform="matrix(1 0 0 1 593.8002 230.9003)" class="st2 st3">Entry_4</text>
    <text transform="matrix(1 0 0 1 178.7999 250.8503)" class="st2 st3">Entry_3</text>
</svg>
