<?xml version="1.0" encoding="utf-8"?>
<!-- Generator: Adobe Illustrator 23.0.2, SVG Export Plug-In . SVG Version: 6.00 Build 0)  -->
<svg version="1.1" id="Layer_1" xmlns="http://www.w3.org/2000/svg" x="0px" y="0px"
     viewBox="0 0 800 700" style="enable-background:new 0 0 800 700;" xml:space="preserve">
<style type="text/css">
	.st0{fill:none;stroke:#000000;stroke-width:3;stroke-miterlimit:10;}
	.st1{fill:#00AEEF;stroke:#000000;stroke-miterlimit:10;}
	.st2{fill:#00A651;stroke:#000000;stroke-miterlimit:10;}
</style>
    <g>
	<path class="st0" d="M641.8,76.1"/>
        <path class="st0" d="M463.8,76.1"/>
        <path class="st0" d="M463.8,76.1"/>
        <rect x="379.8" y="233.3" class="st1" width="72.4" height="27.6" id="d3"/>
        <polygon class="st1" points="228.6,192.4 209.9,192.4 200.6,208.6 209.9,224.8 228.6,224.8 237.9,208.6 	"
                 id="2"/>
        <polygon class="st1" points="685.8,230.9 667.1,230.9 657.8,247.1 667.1,263.3 685.8,263.3 695.1,247.1 	"
                 id="3"/>
        <line class="st0" x1="703.8" y1="208.6" x2="657.8" y2="208.6"/>
        <line class="st0" x1="657.8" y1="113.6" x2="657.8" y2="208.6"/>
        <line class="st0" x1="246.8" y1="112.6" x2="657.8" y2="113.6"/>
        <line class="st0" x1="246.8" y1="212.6" x2="246.8" y2="112.6"/>
        <line class="st0" x1="119.1" y1="217.6" x2="194.2" y2="217.6"/>
        <line class="st0" x1="119.1" y1="284.1" x2="141.8" y2="284.1"/>
        <line class="st0" x1="141.8" y1="382.6" x2="141.8" y2="280.6"/>
        <line class="st0" x1="657.8" y1="382.6" x2="141.8" y2="382.6"/>
        <line class="st0" x1="657.8" y1="280.6" x2="703.8" y2="280.6"/>
        <line class="st0" x1="657.8" y1="382.6" x2="657.8" y2="280.6"/>
        <line class="st0" x1="162.8" y1="280.6" x2="194.8" y2="280.6"/>
        <line class="st0" x1="119.1" y1="217.6" x2="119.1" y2="284.1"/>
</g>
    <g class="st2">
	<path d="M366.7,279.8h2.9v7.4h0.1c0.4-0.6,0.8-1.2,1.2-1.8l4.2-5.7h3.6l-5.6,6.9l5.9,9.3h-3.5l-4.6-7.4l-1.4,1.7v5.7h-2.9
		L366.7,279.8L366.7,279.8z"/>
        <path d="M387.3,296l-0.2-1.3H387c-0.7,0.9-1.9,1.6-3.5,1.6c-2.4,0-3.7-1.7-3.7-3.5c0-3,2.6-4.4,6.9-4.4v-0.2c0-0.8-0.3-2-2.4-2
		c-1.2,0-2.4,0.4-3.1,0.9l-0.6-1.9c0.9-0.5,2.4-1,4.2-1c3.7,0,4.8,2.4,4.8,4.9v4.2c0,1.1,0,2.1,0.2,2.8h-2.5V296z M386.9,290.3
		c-2.1,0-4.1,0.4-4.1,2.2c0,1.2,0.7,1.7,1.7,1.7c1.2,0,2-0.8,2.3-1.6c0.1-0.2,0.1-0.5,0.1-0.6V290.3z"/>
        <path d="M392.9,287.8c0-1.3,0-2.5-0.1-3.5h2.6l0.1,1.8h0.1c0.5-0.9,1.8-2,3.7-2c2,0,4.2,1.3,4.2,5v6.9h-3v-6.6c0-1.7-0.6-3-2.2-3
		c-1.2,0-2,0.8-2.3,1.7c-0.1,0.3-0.1,0.6-0.1,1v6.9h-3L392.9,287.8L392.9,287.8z"/>
        <path d="M409.9,281v3.3h2.8v2.2h-2.8v5.2c0,1.4,0.4,2.2,1.5,2.2c0.5,0,0.9-0.1,1.2-0.1v2.3c-0.4,0.2-1.2,0.3-2.1,0.3
		c-1.1,0-2-0.4-2.5-1c-0.6-0.7-0.9-1.7-0.9-3.3v-5.5h-1.7v-2.2h1.7v-2.6L409.9,281z"/>
        <path d="M425.9,290c0,4.3-3,6.2-6,6.2c-3.3,0-5.9-2.3-5.9-6c0-3.8,2.5-6.2,6-6.2C423.6,284,425.9,286.5,425.9,290z M417.1,290.2
		c0,2.3,1.1,4,2.9,4c1.7,0,2.9-1.7,2.9-4c0-1.8-0.8-3.9-2.8-3.9C417.9,286.2,417.1,288.2,417.1,290.2z"/>
        <path d="M439.4,290c0,4.3-3,6.2-6,6.2c-3.3,0-5.9-2.3-5.9-6c0-3.8,2.5-6.2,6-6.2C437.1,284,439.4,286.5,439.4,290z M430.6,290.2
		c0,2.3,1.1,4,2.9,4c1.7,0,2.9-1.7,2.9-4c0-1.8-0.8-3.9-2.8-3.9C431.5,286.2,430.6,288.2,430.6,290.2z"/>
        <path d="M441.9,288.1c0-1.6,0-2.7-0.1-3.8h2.6l0.1,2.2h0.1c0.6-1.7,1.9-2.5,3.2-2.5c0.3,0,0.5,0,0.7,0.1v2.8
		c-0.2,0-0.5-0.1-0.9-0.1c-1.4,0-2.4,0.9-2.6,2.2c0,0.3-0.1,0.6-0.1,0.9v6h-3L441.9,288.1L441.9,288.1z"/>
        <path d="M455.5,280c1.3-0.2,3-0.3,4.7-0.3c3,0,5.1,0.6,6.6,1.9c1.6,1.3,2.5,3.2,2.5,6c0,2.9-1,5-2.5,6.4c-1.6,1.5-4.2,2.2-7.3,2.2
		c-1.7,0-3-0.1-4-0.2L455.5,280L455.5,280z M458.5,293.7c0.4,0.1,1,0.1,1.6,0.1c3.8,0,6.1-2.1,6.1-6.2c0-3.6-2-5.6-5.7-5.6
		c-0.9,0-1.6,0.1-2,0.2V293.7z"/>
        <path d="M471.8,293c0.6,0.4,2.1,1,3.6,1c2.3,0,3.2-1.3,3.1-2.5c0-1.8-1.7-2.6-3.5-2.6h-1.4v-2.2h1.3c1.4,0,3.1-0.6,3.1-2.2
		c0-1.1-0.8-1.9-2.5-1.9c-1.3,0-2.5,0.6-3.2,1l-0.7-2.1c0.9-0.6,2.6-1.2,4.5-1.2c3.2,0,4.9,1.8,4.9,3.8c0,1.6-1,3-2.9,3.6l0,0
		c1.9,0.3,3.4,1.8,3.4,3.9c0,2.6-2.2,4.7-6.1,4.7c-1.9,0-3.5-0.5-4.4-1.1L471.8,293z"/>
</g>
</svg>
