<?xml version="1.0" encoding="utf-8"?>
<!-- Generator: Adobe Illustrator 23.0.2, SVG Export Plug-In . SVG Version: 6.00 Build 0)  -->
<svg version="1.1" id="Layer_1" xmlns="http://www.w3.org/2000/svg" xmlns:xlink="http://www.w3.org/1999/xlink" x="0px" y="0px"
	 viewBox="0 0 800 700" style="enable-background:new 0 0 800 700;" xml:space="preserve">
<style type="text/css">
	.st0{fill:none;stroke:#000000;stroke-width:3;stroke-miterlimit:10;}
	.st1{fill:#00245D;}
	.st2{fill:#FFFFFF;}
</style>
<path class="st0" d="M598.8,74.5"/>
<path class="st0" d="M420.9,74.5"/>
<path class="st0" d="M420.9,74.5"/>
<polygon class="st1" points="265.9,224.7 265.9,100.2 533.5,100.2 533.5,224.7 399.7,248.8 "/>
<g>
	<g>
		<path class="st2" d="M303.9,155.7l13.7,16.4l14.3-16.4h9.6l-19.1,21.9l19.2,22.7h-9.5l-14.8-17.7l-15.2,17.7h-9.6l19.9-23.3
			l-18.1-21.3H303.9z"/>
		<path class="st2" d="M383.9,155.7v7.8h-22.3c-4.7,0-6.7,2.2-6.7,5.6c0,3.6,2.3,5.3,6.8,5.3h21.9v7.1h-22.1c-4.5,0-6.8,1.8-6.8,5.4
			c0,3.5,2.2,5.6,6.7,5.6H384v7.8h-22.6c-10.6,0-14.9-5.2-14.9-12.1c0-5.1,2.3-8.5,6.4-10.2c-4.2-1.7-6.3-5.1-6.3-10
			c0-7.1,4.4-12.1,14.9-12.1H383.9z"/>
		<path class="st2" d="M424.5,155.7v7.8h-13v36.8h-7.9v-36.8h-13v-7.8H424.5z"/>
		<path class="st2" d="M431.6,200.3H423l15.6-39.6c1.7-4.2,4.7-5.8,9.4-5.8c4.6,0,7.7,1.6,9.3,5.8l15.1,39.6h-8.6l-13.5-35.9
			c-0.4-1.1-1.1-1.5-2.2-1.5s-1.8,0.5-2.3,1.5L431.6,200.3z"/>
		<path class="st2" d="M483.6,155.7v29.1c0,4.3,2.1,7.7,9.1,7.7H510v7.8h-17.8c-11.8,0-16.4-6.5-16.4-15.4v-29.2H483.6z"/>
	</g>
</g>
</svg>
