<?xml version="1.0" encoding="utf-8"?>
<!-- Generator: Adobe Illustrator 23.0.2, SVG Export Plug-In . SVG Version: 6.00 Build 0)  -->
<svg version="1.1" id="Layer_1" xmlns="http://www.w3.org/2000/svg" xmlns:xlink="http://www.w3.org/1999/xlink" x="0px" y="0px"
	 viewBox="0 0 800 700" style="enable-background:new 0 0 800 700;" xml:space="preserve">
<style type="text/css">
	.st0{fill:#00B3DE;}
	.st1{fill:#FFFFFF;}
</style>
<polygon class="st0" points="266.2,249.53 266.2,125.01 533.8,125.01 533.8,249.53 400,273.61 "/>
<g>
	<g>
		<path class="st1" d="M304.23,180.56l13.67,16.44l14.33-16.44h9.64l-19.09,21.93l19.22,22.65h-9.51l-14.79-17.7l-15.19,17.7h-9.64
			l19.94-23.25l-18.09-21.33H304.23z"/>
		<path class="st1" d="M384.21,180.56v7.79h-22.32c-4.69,0-6.74,2.18-6.74,5.61c0,3.63,2.31,5.28,6.8,5.28h21.93v7.07h-22.12
			c-4.49,0-6.8,1.78-6.8,5.42c0,3.5,2.18,5.61,6.74,5.61h22.59v7.79h-22.59c-10.57,0-14.86-5.22-14.86-12.15
			c0-5.08,2.31-8.52,6.41-10.24c-4.16-1.72-6.27-5.15-6.27-10.04c0-7.13,4.42-12.15,14.93-12.15H384.21z"/>
		<path class="st1" d="M424.75,180.56v7.79h-13.01v36.78h-7.86v-36.78h-13.01v-7.79H424.75z"/>
		<path class="st1" d="M431.89,225.14h-8.58l15.65-39.62c1.65-4.16,4.69-5.75,9.38-5.75c4.62,0,7.66,1.58,9.25,5.75l15.06,39.62
			h-8.65l-13.54-35.86c-0.4-1.06-1.12-1.52-2.18-1.52s-1.78,0.46-2.25,1.52L431.89,225.14z"/>
		<path class="st1" d="M483.93,180.56v29.12c0,4.29,2.11,7.66,9.11,7.66h17.3v7.79h-17.76c-11.82,0-16.44-6.47-16.44-15.39v-29.19
			H483.93z"/>
	</g>
</g>
</svg>
