<?xml version="1.0" encoding="utf-8"?>
<!-- Generator: Adobe Illustrator 23.0.2, SVG Export Plug-In . SVG Version: 6.00 Build 0)  -->
<svg version="1.1" id="Layer_1" xmlns="http://www.w3.org/2000/svg" xmlns:xlink="http://www.w3.org/1999/xlink" x="0px" y="0px"
	 viewBox="0 0 288 288" style="enable-background:new 0 0 288 288;" xml:space="preserve">
<style type="text/css">
	.st0{fill:#00245D;}
	.st1{fill:#FFFFFF;}
</style>
<polygon class="st0" points="9.92,150.97 9.92,26.45 277.51,26.45 277.51,150.97 143.71,175.05 "/>
<g>
	<g>
		<path class="st1" d="M47.94,82l13.67,16.44L75.95,82h9.64L66.5,103.93l19.22,22.65h-9.51l-14.79-17.7l-15.19,17.7h-9.64
			l19.94-23.25L38.44,82H47.94z"/>
		<path class="st1" d="M127.92,82v7.79H105.6c-4.69,0-6.74,2.18-6.74,5.61c0,3.63,2.31,5.28,6.8,5.28h21.93v7.07h-22.12
			c-4.49,0-6.8,1.78-6.8,5.42c0,3.5,2.18,5.61,6.74,5.61h22.59v7.79H105.4c-10.57,0-14.86-5.22-14.86-12.15
			c0-5.08,2.31-8.52,6.41-10.24c-4.16-1.72-6.27-5.15-6.27-10.04C90.67,87.02,95.1,82,105.6,82H127.92z"/>
		<path class="st1" d="M168.47,82v7.79h-13.01v36.78h-7.86V89.8h-13.01V82H168.47z"/>
		<path class="st1" d="M175.6,126.58h-8.58l15.65-39.62c1.65-4.16,4.69-5.75,9.38-5.75c4.62,0,7.66,1.58,9.25,5.75l15.06,39.62
			h-8.65l-13.54-35.86c-0.4-1.06-1.12-1.52-2.18-1.52s-1.78,0.46-2.25,1.52L175.6,126.58z"/>
		<path class="st1" d="M227.64,82v29.12c0,4.29,2.11,7.66,9.11,7.66h17.3v7.79h-17.76c-11.82,0-16.44-6.47-16.44-15.39V82H227.64z"
			/>
	</g>
</g>
</svg>
